# xmcd CD database file
#
# Track frame offsets:
#	150
#	10828
#	23478
#	38438
#	53305
#	62370
#	75575
#	91573
#	105825
#	119300
#	131988
#	143625
#	159497
#	172421
#	188616
#	214507
#	233252
#	248733
#	274427
#	288324
#
# Disc length: 3999 seconds
#
# Revision: 0
# Processed by: cddbd v1.5.2PL0 Copyright (c) Steve Scherf et al.
# Submitted via: CDex 1.81
#
DISCID=ef0f9d14
DTITLE=Louis Armstrong - What A Wonderful World
DYEAR=1900
DGENRE=Jazz
TTITLE0=What A Wonderful World
TTITLE1=Cabaret
TTITLE2=The Home Fire
TTITLE3=Dream A Little Dream Of Me
TTITLE4=Give Me Your Kisses (I'll Give You My Heart)
TTITLE5=The Sunshine Of Love
TTITLE6=Hello Brother
TTITLE7=There Must Be A Way
TTITLE8=Fantastic, That's You
TTITLE9=I Guess I'll Get The Papers And Go Home
TTITLE10=Hellzapoppin'
TTITLE11=Blueberry Hill
TTITLE12=I Love You So
TTITLE13=When The Saints
TTITLE14=Now You Have Jazz
TTITLE15=Indiana
TTITLE16=Old Miss
TTITLE17=St Louis Blues
TTITLE18=My Bucket's Got A Hole In It
TTITLE19=What A Wonderful World
EXTD=
EXTT0=
EXTT1=
EXTT2=
EXTT3=
EXTT4=
EXTT5=
EXTT6=
EXTT7=
EXTT8=
EXTT9=
EXTT10=
EXTT11=
EXTT12=
EXTT13=
EXTT14=
EXTT15=
EXTT16=
EXTT17=
EXTT18=
EXTT19=
PLAYORDER=
